# xmcd
#
# Track frame offsets: 
#        150
#        11322
#        31431
#        50710
#        58403
#        67442
#        76287
#        88573
#        105077
#        110130
#        118695
#        127640
#        139058
#        154433
#
# Disc length: 2234 seconds
#
# Revision: 1
# Processed by: cddbd v1.5.2PL0 Copyright (c) Steve Scherf et al.
# Submitted via: ExactAudioCopy v1.3
#
DISCID=c008b80e
DTITLE=Jaromír Nohavica - Koncert 1984
DYEAR=2012
DGENRE=Country
TTITLE0=Zatímco se koupeš
TTITLE1=Rakety
TTITLE2=Husita
TTITLE3=V jednym dumku na Zarubku
TTITLE4=Píseň o ženách
TTITLE5=Velký umění
TTITLE6=Píseň spokojeného člověka
TTITLE7=Dezertér
TTITLE8=Písnička o moskevském metru
TTITLE9=Psohlavci
TTITLE10=Píseň o manželství
TTITLE11=Našel jsem já pytlíček
TTITLE12=Pochod marodů
TTITLE13=Zatímco se koupeš 2
EXTD=YEAR: 1984
EXTT0=
EXTT1=
EXTT2=
EXTT3=
EXTT4=
EXTT5=
EXTT6=
EXTT7=
EXTT8=
EXTT9=
EXTT10=
EXTT11=
EXTT12=
EXTT13=
PLAYORDER=
